<?xml version="1.0" encoding="iso-8859-1"?>
<!-- Generator: Adobe Illustrator 19.0.0, SVG Export Plug-In . SVG Version: 6.00 Build 0)  -->
<svg version="1.1" id="Capa_1" xmlns="http://www.w3.org/2000/svg" xmlns:xlink="http://www.w3.org/1999/xlink" x="0px" y="0px"
	 viewBox="0 0 511.999 511.999" style="enable-background:new 0 0 511.999 511.999;" xml:space="preserve">
<path style="fill:#EEA33E;" d="M256,0C114.616,0,0,114.616,0,256s114.616,256,256,256s256-114.616,256-256S397.384,0,256,0z
	 M256,361.441c-58.233,0-105.441-47.207-105.441-105.441S197.765,150.558,256,150.558S361.441,197.765,361.441,256
	S314.234,361.441,256,361.441z"/>
<path style="fill:#DF862A;" d="M256,0.002c-9.95,0-19.777,0.566-29.439,1.667C354.082,16.281,453.13,124.57,453.13,256
	s-99.049,239.719-226.57,254.33c9.663,1.101,19.489,1.667,29.439,1.667c141.381,0,255.999-114.618,255.999-255.999
	S397.38,0.002,256,0.002z"/>
<path style="fill:#9E4716;" d="M256,0.002c-1.348,0-2.696,0.01-4.034,0.041c-0.916,0-1.831,0.02-2.738,0.051
	c-0.494,0.01-0.987,0.021-1.492,0.041c-2.048,0.062-4.095,0.154-6.133,0.268c-0.792,0.041-1.585,0.092-2.377,0.144
	c-0.227,0.01-0.442,0.021-0.659,0.041c-0.792,0.051-1.575,0.103-2.357,0.175c-0.803,0.051-1.595,0.113-2.398,0.185
	c-0.895,0.072-1.79,0.154-2.686,0.247c-1.523,0.144-3.025,0.299-4.538,0.473C116.255,14.294,27.238,97.055,5.229,204.263
	c-3.426,16.711-5.228,34.018-5.228,51.737c0,1.853,0.021,3.704,0.062,5.557c0,0.082,0,0.154,0.01,0.237
	c24.746-4.806,31.96,48.125,63.292,24.49c15.671-11.813,24.345-46.869,49.525-30.149c13.418,8.911,19.447,31.497,39.903,21.896
	h0.072c-1.513-7.1-2.305-14.477-2.305-22.031c0-58.23,47.209-105.439,105.439-105.439S361.44,197.77,361.44,256.001
	c0,7.615-0.803,15.034-2.346,22.185c20.178,9.199,26.218-13.191,39.553-22.051c25.189-16.721,33.854,18.337,49.525,30.149
	c0.998,0.751,1.986,1.43,2.932,2.037c28.904,18.285,36.416-31.219,60.4-26.527h0.422c0.021-0.957,0.041-1.924,0.051-2.891
	s0.021-1.935,0.021-2.902C511.998,114.619,397.38,0.002,256,0.002z"/>
<path style="fill:#7F3B0D;" d="M256,0.002c-1.348,0-2.696,0.01-4.034,0.041c-0.916,0-1.831,0.02-2.738,0.051
	c-0.494,0.01-0.987,0.021-1.492,0.041c-2.048,0.062-4.095,0.154-6.133,0.268c-0.792,0.041-1.585,0.092-2.377,0.144
	c-0.227,0.01-0.442,0.021-0.659,0.041c-0.792,0.051-1.575,0.103-2.357,0.175c-0.803,0.051-1.595,0.113-2.398,0.185
	c-0.895,0.072-1.79,0.154-2.686,0.247c-1.523,0.144-3.025,0.299-4.538,0.473C354.1,16.301,453.128,124.58,453.128,256
	c0,10.949-0.69,21.732-2.027,32.32c28.904,18.285,36.416-31.219,60.4-26.527h0.422c0.021-0.957,0.041-1.924,0.051-2.891
	s0.021-1.935,0.021-2.902C511.998,114.619,397.38,0.002,256,0.002z"/>
<path style="fill:#F76F8C;" d="M75.929,147.75c-1.905,0-3.811-0.72-5.276-2.161c-2.958-2.914-2.994-7.674-0.081-10.632
	l20.579-20.897c2.912-2.959,7.673-2.994,10.632-0.081c2.958,2.914,2.994,7.674,0.081,10.632l-20.579,20.897
	C79.815,147.002,77.872,147.75,75.929,147.75z"/>
<path style="fill:#FFD04F;" d="M197.123,133.414c-1.795,0-3.597-0.639-5.033-1.936c-3.084-2.781-3.328-7.535-0.546-10.619
	l19.645-21.777c2.782-3.084,7.537-3.328,10.619-0.546c3.084,2.781,3.328,7.535,0.546,10.619l-19.645,21.777
	C201.223,132.577,199.177,133.414,197.123,133.414z"/>
<path style="fill:#55D0E5;" d="M383.67,220.177c-1.905,0-3.811-0.72-5.276-2.161c-2.958-2.913-2.994-7.674-0.081-10.632
	l20.579-20.897c2.913-2.959,7.673-2.994,10.632-0.081c2.958,2.913,2.994,7.674,0.081,10.632l-20.579,20.897
	C387.555,219.428,385.614,220.177,383.67,220.177z"/>
<g>
	<path style="fill:#F76F8C;" d="M360.993,151.84c-0.078,0-0.155-0.001-0.235-0.003c-4.15-0.127-7.411-3.595-7.284-7.746
		l0.899-29.316c0.126-4.15,3.571-7.415,7.746-7.285c4.15,0.127,7.411,3.595,7.284,7.746l-0.899,29.316
		C368.379,148.625,365.039,151.84,360.993,151.84z"/>
	<path style="fill:#F76F8C;" d="M447.219,155.258c-0.56,0-1.128-0.063-1.696-0.193l-28.579-6.593
		c-4.046-0.933-6.57-4.97-5.636-9.016c0.932-4.046,4.97-6.57,9.015-5.636l28.579,6.593c4.046,0.933,6.57,4.97,5.636,9.016
		C453.736,152.905,450.641,155.258,447.219,155.258z"/>
</g>
<path style="fill:#55D0E5;" d="M134.748,200.238c-0.756,0-1.525-0.114-2.283-0.356l-27.947-8.898
	c-3.957-1.259-6.143-5.488-4.883-9.445c1.26-3.957,5.487-6.145,9.445-4.883l27.947,8.898c3.957,1.259,6.143,5.488,4.883,9.445
	C140.892,198.197,137.933,200.238,134.748,200.238z"/>
<path style="fill:#FFD04F;" d="M57.542,240.649c-2.808,0-5.5-1.58-6.79-4.282l-12.631-26.471c-1.788-3.748-0.199-8.235,3.548-10.023
	c3.746-1.786,8.234-0.2,10.022,3.548l12.631,26.471c1.788,3.748,0.199,8.235-3.548,10.023
	C59.731,240.412,58.628,240.649,57.542,240.649z"/>
<path style="fill:#55D0E5;" d="M161.875,97.341c-1.606,0-3.224-0.512-4.592-1.57l-22.637-17.493
	c-3.285-2.539-3.891-7.261-1.352-10.547c2.538-3.286,7.261-3.89,10.547-1.352l22.637,17.493c3.285,2.539,3.892,7.261,1.352,10.547
	C166.348,96.336,164.122,97.341,161.875,97.341z"/>
<path style="fill:#F76F8C;" d="M211.252,66.429c-0.735,0-1.484-0.108-2.224-0.338c-3.967-1.227-6.187-5.437-4.96-9.404l8.455-27.331
	c1.228-3.967,5.434-6.189,9.405-4.961c3.967,1.227,6.187,5.437,4.96,9.404l-8.455,27.331
	C217.434,64.358,214.462,66.429,211.252,66.429z"/>
<path style="fill:#FFD04F;" d="M313.933,60.801c-1.455,0-2.924-0.421-4.218-1.3L286.05,43.425
	c-3.434-2.334-4.327-7.009-1.994-10.443c2.335-3.435,7.009-4.327,10.444-1.995l23.665,16.076c3.434,2.334,4.327,7.009,1.994,10.443
	C318.704,59.648,316.339,60.801,313.933,60.801z"/>
<path style="fill:#55D0E5;" d="M387.885,80.045c-0.035,0-0.069,0-0.105,0l-28.605-0.394c-4.152-0.057-7.471-3.469-7.414-7.622
	c0.057-4.116,3.411-7.415,7.515-7.415c0.035,0,0.069,0,0.105,0l28.605,0.394c4.152,0.057,7.471,3.469,7.414,7.622
	C395.344,76.746,391.989,80.045,387.885,80.045z"/>
<path style="fill:#FFD04F;" d="M475.852,233.67c-0.544,0-1.098-0.059-1.65-0.183l-27.916-6.256c-4.052-0.908-6.601-4.929-5.693-8.98
	c0.907-4.051,4.929-6.602,8.98-5.692l27.916,6.256c4.052,0.908,6.601,4.929,5.693,8.98
	C482.398,231.291,479.293,233.67,475.852,233.67z"/>
<path style="fill:#55D0E5;" d="M276.109,116.459c-3.673,0-6.887-2.696-7.43-6.439c-0.597-4.109,2.249-7.924,6.36-8.521l28.311-4.113
	c4.095-0.601,7.923,2.249,8.521,6.36c0.597,4.109-2.249,7.924-6.359,8.521l-28.311,4.113
	C276.833,116.433,276.469,116.459,276.109,116.459z"/>
<g>
</g>
<g>
</g>
<g>
</g>
<g>
</g>
<g>
</g>
<g>
</g>
<g>
</g>
<g>
</g>
<g>
</g>
<g>
</g>
<g>
</g>
<g>
</g>
<g>
</g>
<g>
</g>
<g>
</g>
</svg>
