<svg id="Capa_1" enable-background="new 0 0 512 512" height="512" viewBox="0 0 512 512" width="512" xmlns="http://www.w3.org/2000/svg"><g><g><path d="m256 10.129c-135.791 0-245.871 110.08-245.871 245.871s110.08 245.871 245.871 245.871 245.871-110.08 245.871-245.871-110.08-245.871-245.871-245.871zm0 320.501c-41.217 0-74.63-33.413-74.63-74.63s33.413-74.63 74.63-74.63 74.63 33.413 74.63 74.63-33.413 74.63-74.63 74.63z" fill="#ffd4b5"/><path d="m435.097 199.677c-5.823-18.517-28.161-28.563-38.841-43.566-11.069-15.549-13.441-39.845-28.464-50.96-15.174-11.227-39.164-6.355-57.054-12.372-17.714-5.957-33.875-24.388-52.961-24.564-18.415-.171-34.902 17.749-53.419 23.572s-42.293.566-57.295 11.246c-15.549 11.069-18.253 35.432-29.368 50.456-11.227 15.174-33.687 24.91-39.704 42.8-5.957 17.713 6.004 38.993 5.827 58.079-.171 18.415-12.738 39.438-6.915 57.955s28.161 28.563 38.841 43.566c11.069 15.549 13.441 39.845 28.464 50.96 15.174 11.227 39.164 6.355 57.054 12.371 17.713 5.957 33.875 24.388 52.961 24.564 18.415.171 34.902-17.749 53.419-23.572s42.293-.566 57.295-11.246c15.549-11.069 18.253-35.432 29.369-50.456 11.226-15.174 33.687-24.91 39.704-42.8 5.957-17.714-6.004-38.993-5.827-58.079.17-18.414 12.738-39.437 6.914-57.954zm-179.097 138.564c-45.42 0-82.241-36.821-82.241-82.241 0-45.421 36.821-82.241 82.241-82.241s82.241 36.821 82.241 82.241c0 45.421-36.821 82.241-82.241 82.241z" fill="#9d9ae8"/></g><g><path d="m451.333 90.5c-3.674-4.22-10.073-4.663-14.291-.99-4.22 3.673-4.663 10.071-.99 14.291 36.953 42.454 55.689 93.662 55.689 152.199 0 62.969-24.522 122.169-69.047 166.694s-103.725 69.048-166.694 69.048-122.169-24.522-166.694-69.048-69.048-103.725-69.048-166.694 24.522-122.169 69.048-166.694 103.725-69.048 166.694-69.048c41.631 0 78.39 9.264 112.375 28.32 4.878 2.735 11.052.999 13.789-3.882 2.736-4.88.998-11.053-3.882-13.789-37.09-20.797-77.09-30.907-122.282-30.907-68.381 0-132.667 26.629-181.02 74.98-48.351 48.353-74.98 112.639-74.98 181.02s26.629 132.667 74.98 181.02c48.353 48.351 112.639 74.98 181.02 74.98s132.667-26.629 181.02-74.98c48.351-48.353 74.98-112.639 74.98-181.02 0-62.673-20.978-119.902-60.667-165.5z"/><path d="m256 171.242c-46.735 0-84.758 38.023-84.758 84.758s38.023 84.758 84.758 84.758 84.758-38.023 84.758-84.758-38.023-84.758-84.758-84.758zm0 149.258c-35.566 0-64.5-28.934-64.5-64.5s28.934-64.5 64.5-64.5 64.5 28.934 64.5 64.5-28.934 64.5-64.5 64.5z"/><path d="m372.324 95.912c-11.335-8.249-25.132-9.241-38.475-10.2-7.884-.567-15.33-1.102-21.51-3.109-5.77-1.873-11.87-5.708-18.328-9.767-10.969-6.896-23.402-14.71-38.011-14.71s-27.041 7.814-38.01 14.709c-6.458 4.061-12.559 7.896-18.329 9.769-6.179 2.006-13.626 2.541-21.51 3.108-13.343.959-27.14 1.952-38.476 10.201-11.444 8.329-16.882 21.782-21.681 33.652-2.939 7.271-5.715 14.139-9.466 19.293-3.672 5.046-9.291 9.74-15.239 14.71-9.888 8.261-21.094 17.623-25.527 31.275-4.253 13.102-.963 26.411 2.217 39.281 1.929 7.802 3.75 15.17 3.75 21.877s-1.821 14.075-3.75 21.877c-3.18 12.87-6.47 26.179-2.216 39.281 4.432 13.651 15.638 23.013 25.525 31.274 5.949 4.971 11.568 9.665 15.241 14.712 3.75 5.153 6.527 12.02 9.465 19.292 4.798 11.87 10.237 25.323 21.682 33.653 11.335 8.249 25.132 9.241 38.475 10.2 7.884.567 15.33 1.102 21.51 3.109 5.77 1.872 11.87 5.708 18.328 9.767 10.969 6.896 23.402 14.71 38.011 14.71s27.041-7.814 38.01-14.709c6.458-4.061 12.559-7.896 18.329-9.769 6.179-2.006 13.626-2.541 21.51-3.108 13.343-.96 27.14-1.952 38.476-10.201 11.444-8.329 16.882-21.782 21.681-33.652 2.939-7.271 5.715-14.139 9.466-19.293 3.672-5.046 9.291-9.74 15.239-14.71 9.888-8.261 21.094-17.623 25.527-31.275 4.253-13.102.963-26.411-2.217-39.281-1.929-7.802-3.75-15.17-3.75-21.877s1.821-14.075 3.75-21.877c3.18-12.87 6.47-26.179 2.216-39.281-4.431-13.651-15.638-23.013-25.525-31.274-5.949-4.971-11.568-9.665-15.241-14.712-3.75-5.153-6.527-12.02-9.465-19.292-4.799-11.87-10.237-25.323-21.682-33.653zm33.399 83.203c8.544 7.14 16.615 13.882 19.245 21.983 2.468 7.601-.001 17.589-2.614 28.165-2.135 8.635-4.341 17.565-4.341 26.737s2.207 18.102 4.341 26.737c2.613 10.575 5.082 20.564 2.614 28.165-2.63 8.101-10.701 14.845-19.245 21.983-6.631 5.539-13.487 11.268-18.631 18.336-5.218 7.17-8.599 15.533-11.868 23.62-4.148 10.259-8.065 19.949-14.82 24.865-6.649 4.839-17.025 5.585-28.008 6.375-8.746.628-17.789 1.279-26.312 4.046-8.165 2.651-15.633 7.346-22.856 11.886-9.491 5.967-18.457 11.602-27.228 11.602s-17.737-5.636-27.23-11.603c-7.222-4.539-14.689-9.234-22.854-11.884-8.523-2.768-17.566-3.419-26.312-4.047-10.984-.79-21.359-1.536-28.007-6.374-6.756-4.917-10.673-14.607-14.821-24.866-3.269-8.087-6.65-16.451-11.867-23.619-5.145-7.07-12.002-12.798-18.632-18.337-8.544-7.14-16.615-13.882-19.245-21.983-2.468-7.601.001-17.589 2.614-28.165 2.135-8.635 4.341-17.565 4.341-26.737s-2.207-18.102-4.341-26.737c-2.613-10.575-5.082-20.564-2.614-28.165 2.63-8.101 10.701-14.845 19.245-21.983 6.631-5.539 13.487-11.268 18.631-18.336 5.218-7.17 8.599-15.533 11.868-23.62 4.148-10.259 8.065-19.949 14.82-24.865 6.649-4.839 17.025-5.585 28.008-6.375 8.746-.628 17.789-1.279 26.312-4.046 8.165-2.651 15.633-7.346 22.856-11.886 9.491-5.967 18.457-11.602 27.228-11.602s17.737 5.636 27.23 11.603c7.222 4.539 14.689 9.234 22.854 11.884 8.523 2.768 17.566 3.419 26.312 4.047 10.984.79 21.359 1.536 28.007 6.374 6.756 4.917 10.673 14.607 14.821 24.866 3.269 8.087 6.65 16.451 11.867 23.619 5.145 7.069 12.002 12.797 18.632 18.337z"/><circle cx="256" cy="128.373" r="10"/><circle cx="256" cy="380.251" r="10"/><path d="m187.993 160.413c4.473-3.239 5.473-9.491 2.233-13.964-3.239-4.473-9.491-5.472-13.964-2.233s-5.472 9.491-2.233 13.964c3.24 4.472 9.491 5.472 13.964 2.233z"/><path d="m324.007 348.211c-4.473 3.239-5.473 9.491-2.233 13.964s9.491 5.472 13.964 2.233 5.472-9.491 2.233-13.964c-3.24-4.473-9.491-5.472-13.964-2.233z"/><path d="m132.824 226.235c5.269 1.649 10.878-1.285 12.527-6.555 1.649-5.269-1.285-10.878-6.555-12.527-5.269-1.649-10.878 1.285-12.527 6.555-1.649 5.269 1.286 10.878 6.555 12.527z"/><path d="m379.176 282.389c-5.269-1.649-10.878 1.285-12.527 6.555-1.649 5.269 1.285 10.878 6.555 12.527 5.269 1.649 10.878-1.285 12.527-6.555 1.649-5.269-1.286-10.878-6.555-12.527z"/><path d="m132.987 283.095c-5.26 1.679-8.162 7.305-6.483 12.565s7.305 8.162 12.565 6.483 8.162-7.305 6.483-12.565-7.305-8.162-12.565-6.483z"/><path d="m366.448 219.046c1.679 5.26 7.305 8.162 12.565 6.483s8.162-7.305 6.483-12.565-7.305-8.162-12.565-6.483c-5.26 1.68-8.162 7.305-6.483 12.565z"/><path d="m188.242 348.39c-4.481-3.227-10.73-2.211-13.958 2.27s-2.211 10.73 2.27 13.958c4.481 3.227 10.73 2.211 13.958-2.27 3.227-4.481 2.211-10.73-2.27-13.958z"/><path d="m323.758 160.233c4.481 3.227 10.73 2.211 13.958-2.27s2.211-10.73-2.27-13.958c-4.481-3.227-10.73-2.211-13.958 2.27-3.227 4.482-2.211 10.731 2.27 13.958z"/><circle cx="410.976" cy="64.897" r="10"/></g></g></svg>